<svg xmlns="http://www.w3.org/2000/svg" viewBox="0 0 284.815 284.815"><path d="M255.9 228.08c-7.725 0-14.987-3.014-20.45-8.471l-93.048-93.054-93.041 93.048c-5.456 5.463-12.719 8.471-20.45 8.471s-14.994-3.008-20.457-8.471c-11.273-11.273-11.273-29.621 0-40.894L121.952 65.205c5.456-5.463 12.719-8.471 20.444-8.471 7.719 0 14.987 3.008 20.45 8.471l113.498 113.504c5.469 5.463 8.471 12.719 8.471 20.45 0 7.719-3.008 14.987-8.471 20.45-5.456 5.457-12.718 8.471-20.444 8.471zM142.403 108.381l102.135 102.142c6.073 6.073 16.645 6.073 22.719 0 3.04-3.04 4.704-7.076 4.704-11.363s-1.671-8.323-4.704-11.363L153.47 74.016c-6.073-5.797-16.453-5.701-22.423.276L17.542 187.797c-6.266 6.266-6.266 16.459 0 22.719 6.073 6.073 16.658 6.073 22.725 0l102.136-102.135z"/></svg>